<svg width="17" height="12" viewBox="0 0 17 12" fill="none" xmlns="http://www.w3.org/2000/svg">
<path d="M14.025 10.5H2.975C2.74125 10.5 2.55 10.6687 2.55 10.875V11.625C2.55 11.8313 2.74125 12 2.975 12H14.025C14.2587 12 14.45 11.8313 14.45 11.625V10.875C14.45 10.6687 14.2587 10.5 14.025 10.5ZM15.725 3C15.0211 3 14.45 3.50391 14.45 4.125C14.45 4.29141 14.4925 4.44609 14.5669 4.58906L12.6438 5.60625C12.2347 5.82188 11.7061 5.7 11.4697 5.33438L9.30484 1.99219C9.58906 1.78594 9.775 1.47656 9.775 1.125C9.775 0.503906 9.20391 0 8.5 0C7.79609 0 7.225 0.503906 7.225 1.125C7.225 1.47656 7.41094 1.78594 7.69516 1.99219L5.53031 5.33438C5.29391 5.7 4.76266 5.82188 4.35625 5.60625L2.43578 4.58906C2.5075 4.44844 2.55266 4.29141 2.55266 4.125C2.55266 3.50391 1.98156 3 1.27766 3C0.57375 3 0 3.50391 0 4.125C0 4.74609 0.571094 5.25 1.275 5.25C1.34406 5.25 1.41313 5.24062 1.47953 5.23125L3.4 9.75H13.6L15.5205 5.23125C15.5869 5.24062 15.6559 5.25 15.725 5.25C16.4289 5.25 17 4.74609 17 4.125C17 3.50391 16.4289 3 15.725 3Z" fill="#F1DD27"/>
</svg>
