<svg width="14" height="14" viewBox="0 0 14 14" fill="none" xmlns="http://www.w3.org/2000/svg">
<path fill-rule="evenodd" clip-rule="evenodd" d="M4.95271 1.98022C4.10523 1.8855 3.22796 1.8855 2.38048 1.98022C2.17455 2.00323 2.01215 2.16629 1.98899 2.36433C1.88778 3.22963 1.88778 4.10377 1.98899 4.96906C2.01215 5.1671 2.17455 5.33016 2.38048 5.35317C3.22796 5.44789 4.10523 5.44789 4.9527 5.35317C5.15863 5.33016 5.32103 5.1671 5.34419 4.96906C5.4454 4.10377 5.4454 3.22963 5.34419 2.36433C5.32103 2.16629 5.15863 2.00323 4.95271 1.98022ZM2.2694 0.986406C3.1907 0.883438 4.14248 0.883438 5.06378 0.986406C5.72434 1.06023 6.2593 1.58022 6.33742 2.24816C6.44765 3.19064 6.44765 4.14275 6.33742 5.08523C6.2593 5.75317 5.72434 6.27316 5.06378 6.34699C4.14248 6.44996 3.1907 6.44996 2.2694 6.34699C1.60884 6.27316 1.07388 5.75317 0.995759 5.08523C0.885528 4.14275 0.885528 3.19064 0.995759 2.24816C1.07388 1.58022 1.60884 1.06023 2.2694 0.986406Z" fill="#353F49"/>
<path fill-rule="evenodd" clip-rule="evenodd" d="M4.95271 8.64688C4.10523 8.55217 3.22796 8.55217 2.38048 8.64688C2.17455 8.6699 2.01215 8.83296 1.98899 9.031C1.88778 9.89629 1.88778 10.7704 1.98899 11.6357C2.01215 11.8338 2.17455 11.9968 2.38048 12.0198C3.22796 12.1146 4.10523 12.1146 4.9527 12.0198C5.15863 11.9968 5.32103 11.8338 5.34419 11.6357C5.4454 10.7704 5.4454 9.89629 5.34419 9.031C5.32103 8.83296 5.15863 8.6699 4.95271 8.64688ZM2.2694 7.65307C3.1907 7.5501 4.14248 7.5501 5.06378 7.65307C5.72434 7.7269 6.2593 8.24689 6.33742 8.91483C6.44765 9.85731 6.44765 10.8094 6.33742 11.7519C6.2593 12.4198 5.72434 12.9398 5.06378 13.0137C4.14248 13.1166 3.1907 13.1166 2.2694 13.0137C1.60884 12.9398 1.07388 12.4198 0.995759 11.7519C0.885528 10.8094 0.885528 9.85731 0.995759 8.91483C1.07388 8.24689 1.60884 7.7269 2.2694 7.65307Z" fill="#353F49"/>
<path fill-rule="evenodd" clip-rule="evenodd" d="M11.6194 1.98022C10.7719 1.8855 9.89462 1.8855 9.04714 1.98022C8.84122 2.00323 8.67882 2.16629 8.65566 2.36433C8.55445 3.22963 8.55445 4.10377 8.65566 4.96906C8.67882 5.1671 8.84122 5.33016 9.04714 5.35317C9.89462 5.44789 10.7719 5.44789 11.6194 5.35317C11.8253 5.33016 11.9877 5.1671 12.0109 4.96906C12.1121 4.10377 12.1121 3.22963 12.0109 2.36433C11.9877 2.16629 11.8253 2.00323 11.6194 1.98022ZM8.93607 0.986406C9.85737 0.883438 10.8091 0.883438 11.7304 0.986406C12.391 1.06023 12.926 1.58022 13.0041 2.24816C13.1143 3.19064 13.1143 4.14275 13.0041 5.08523C12.926 5.75317 12.391 6.27316 11.7304 6.34699C10.8091 6.44996 9.85737 6.44996 8.93607 6.34699C8.27551 6.27316 7.74055 5.75317 7.66243 5.08523C7.5522 4.14275 7.5522 3.19064 7.66243 2.24816C7.74055 1.58022 8.27551 1.06023 8.93607 0.986406Z" fill="#353F49"/>
<path fill-rule="evenodd" clip-rule="evenodd" d="M11.6194 8.64688C10.7719 8.55217 9.89462 8.55217 9.04714 8.64688C8.84122 8.6699 8.67882 8.83296 8.65566 9.031C8.55445 9.89629 8.55445 10.7704 8.65566 11.6357C8.67882 11.8338 8.84122 11.9968 9.04714 12.0198C9.89462 12.1146 10.7719 12.1146 11.6194 12.0198C11.8253 11.9968 11.9877 11.8338 12.0109 11.6357C12.1121 10.7704 12.1121 9.89629 12.0109 9.031C11.9877 8.83296 11.8253 8.6699 11.6194 8.64688ZM8.93607 7.65307C9.85737 7.5501 10.8091 7.5501 11.7304 7.65307C12.391 7.7269 12.926 8.24689 13.0041 8.91483C13.1143 9.85731 13.1143 10.8094 13.0041 11.7519C12.926 12.4198 12.391 12.9398 11.7304 13.0137C10.8091 13.1166 9.85737 13.1166 8.93607 13.0137C8.27551 12.9398 7.74055 12.4198 7.66243 11.7519C7.5522 10.8094 7.5522 9.85731 7.66243 8.91483C7.74055 8.24689 8.27551 7.7269 8.93607 7.65307Z" fill="#353F49"/>
</svg>
