<svg width="14" height="11" viewBox="0 0 14 11" fill="none" xmlns="http://www.w3.org/2000/svg">
<path fill-rule="evenodd" clip-rule="evenodd" d="M12.0677 8.31716C12.3491 6.77744 12.3667 5.20112 12.12 3.65548L12.0773 3.38786C12.0175 3.01314 11.6943 2.73741 11.3148 2.73741H5.50626C5.11621 2.73741 4.80002 2.42122 4.80002 2.03118C4.80002 1.73782 4.56221 1.5 4.26884 1.5H2.74113C2.34311 1.5 2.00786 1.7974 1.9604 2.19259L1.77875 3.70533C1.59759 5.21387 1.64435 6.74108 1.91743 8.23571C1.97912 8.57331 2.26147 8.82638 2.60378 8.85087L3.61312 8.92308C5.86817 9.08441 8.13187 9.08441 10.3869 8.92308L11.4788 8.84496C11.7725 8.82395 12.0148 8.60682 12.0677 8.31716ZM13.1075 3.49786C13.3721 5.15535 13.3531 6.84575 13.0514 8.49689C12.9165 9.23533 12.2989 9.78884 11.5502 9.84241L10.4583 9.92053C8.15572 10.0853 5.84433 10.0853 3.54176 9.92053L2.53242 9.84832C1.73507 9.79127 1.0774 9.20182 0.93372 8.41545C0.64261 6.82218 0.592772 5.19419 0.785879 3.5861L0.967536 2.07336C1.07534 1.17562 1.83694 0.5 2.74113 0.5L4.26884 0.5C5.01401 0.5 5.63486 1.03231 5.77187 1.73741H11.3148C12.1857 1.73741 12.9275 2.37022 13.0648 3.23024L13.1075 3.49786Z" fill="#353F49"/>
</svg>
