<svg width="12" height="13" viewBox="0 0 12 13" fill="none" xmlns="http://www.w3.org/2000/svg">
<path fill-rule="evenodd" clip-rule="evenodd" d="M7.03851 1.68965C6.45813 1.13275 5.54179 1.13275 4.96141 1.68965L1.87712 4.64921C1.80155 4.72172 1.75072 4.81618 1.73183 4.91919C1.36241 6.93376 1.33514 8.99618 1.65117 11.0198L1.72618 11.5001H3.71049V7.35927C3.71049 7.08312 3.93434 6.85927 4.21049 6.85927H7.78943C8.06558 6.85927 8.28943 7.08312 8.28943 7.35927V11.5001H10.2737L10.3488 11.0198C10.6648 8.99618 10.6375 6.93376 10.2681 4.91919C10.2492 4.81618 10.1984 4.72172 10.1228 4.64921L7.03851 1.68965ZM4.26905 0.968105C5.23634 0.0399285 6.76358 0.0399285 7.73087 0.968105L10.8152 3.92766C11.0422 4.14552 11.1949 4.42932 11.2517 4.73882C11.6414 6.86391 11.6701 9.03947 11.3368 11.1741L11.2163 11.9458C11.1664 12.2649 10.8916 12.5001 10.5686 12.5001H7.78943C7.51329 12.5001 7.28943 12.2763 7.28943 12.0001V7.85927H4.71049V12.0001C4.71049 12.2763 4.48663 12.5001 4.21049 12.5001H1.43134C1.10835 12.5001 0.833488 12.2649 0.783652 11.9458L0.663144 11.1741C0.329778 9.03947 0.358543 6.86391 0.748229 4.73882C0.804985 4.42932 0.957707 4.14552 1.18475 3.92766L4.26905 0.968105Z" fill="#353F49"/>
</svg>
