<svg width="12" height="12" viewBox="0 0 12 12" fill="none" xmlns="http://www.w3.org/2000/svg">
<path fill-rule="evenodd" clip-rule="evenodd" d="M3.16659 2.99984C3.16659 1.43503 4.43511 0.166504 5.99992 0.166504C7.56473 0.166504 8.83325 1.43503 8.83325 2.99984C8.83325 4.56464 7.56473 5.83317 5.99992 5.83317C4.43511 5.83317 3.16659 4.56464 3.16659 2.99984ZM5.99992 1.1665C4.9874 1.1665 4.16659 1.98732 4.16659 2.99984C4.16659 4.01236 4.9874 4.83317 5.99992 4.83317C7.01244 4.83317 7.83325 4.01236 7.83325 2.99984C7.83325 1.98732 7.01244 1.1665 5.99992 1.1665Z" fill="#353F49"/>
<path fill-rule="evenodd" clip-rule="evenodd" d="M3.33325 7.83317C2.50483 7.83317 1.83325 8.50474 1.83325 9.33317V10.1254C1.83325 10.1374 1.84199 10.1477 1.8539 10.1496C4.59974 10.5979 7.4001 10.5979 10.1459 10.1496C10.1578 10.1477 10.1666 10.1374 10.1666 10.1254V9.33317C10.1666 8.50474 9.49501 7.83317 8.66659 7.83317H8.43934C8.42177 7.83317 8.40431 7.83595 8.38761 7.8414L7.8106 8.02981C6.63404 8.41399 5.36579 8.41399 4.18924 8.02981L3.61223 7.8414C3.59553 7.83595 3.57807 7.83317 3.5605 7.83317H3.33325ZM0.833252 9.33317C0.833252 7.95246 1.95254 6.83317 3.33325 6.83317H3.5605C3.68349 6.83317 3.80571 6.85262 3.92263 6.8908L4.49964 7.07921C5.4745 7.39753 6.52534 7.39753 7.50019 7.07921L8.0772 6.8908C8.19412 6.85262 8.31634 6.83317 8.43934 6.83317H8.66659C10.0473 6.83317 11.1666 7.95246 11.1666 9.33317V10.1254C11.1666 10.6275 10.8027 11.0557 10.3071 11.1366C7.45452 11.6023 4.54532 11.6023 1.69277 11.1366C1.19717 11.0557 0.833252 10.6275 0.833252 10.1254V9.33317Z" fill="#353F49"/>
</svg>
