<svg width="44" height="44" viewBox="0 0 44 44" fill="none" xmlns="http://www.w3.org/2000/svg">
<rect width="44" height="44" rx="12" fill="#E8E8E8"/>
<path fill-rule="evenodd" clip-rule="evenodd" d="M23.9876 24.8712C21.779 26.6401 18.5462 26.5009 16.4988 24.4536C14.3021 22.2569 14.3021 18.6953 16.4988 16.4986C18.6955 14.3019 22.2571 14.3019 24.4538 16.4986C26.5011 18.5459 26.6403 21.7788 24.8715 23.9873L29.1678 28.2837C29.4119 28.5278 29.4119 28.9235 29.1678 29.1676C28.9237 29.4117 28.528 29.4117 28.2839 29.1676L23.9876 24.8712ZM17.3827 23.5697C15.6742 21.8611 15.6742 19.091 17.3827 17.3825C19.0913 15.6739 21.8614 15.6739 23.5699 17.3825C25.2772 19.0898 25.2785 21.8571 23.5737 23.5659C23.5724 23.5671 23.5711 23.5684 23.5699 23.5696C23.5686 23.5709 23.5674 23.5722 23.5662 23.5734C21.8573 25.2782 19.09 25.277 17.3827 23.5697Z" fill="#215C94"/>
</svg>
