<svg width="22" height="22" viewBox="0 0 22 22" fill="none" xmlns="http://www.w3.org/2000/svg">
<path fill-rule="evenodd" clip-rule="evenodd" d="M11 2.07897L8.78722 4.36847C8.55169 4.61216 8.22731 4.74977 7.8884 4.74977H4.75002V7.88816C4.75002 8.22707 4.6124 8.55145 4.36872 8.78697L2.07922 10.9998L4.36872 13.2126C4.61241 13.4481 4.75002 13.7725 4.75002 14.1114V17.2498H7.8884C8.22731 17.2498 8.55169 17.3874 8.78721 17.6311L11 19.9206L13.2128 17.6311C13.4483 17.3874 13.7727 17.2498 14.1116 17.2498H17.25V14.1114C17.25 13.7725 17.3876 13.4481 17.6313 13.2126L19.9208 10.9998L17.6313 8.78698C17.3876 8.55145 17.25 8.22707 17.25 7.88817V4.74977H14.1116C13.7727 4.74977 13.4483 4.61216 13.2128 4.36847L11 2.07897ZM10.1012 0.850539C10.5926 0.342138 11.4075 0.342139 11.8988 0.850539L14.2177 3.24977H17.5C18.1904 3.24977 18.75 3.80942 18.75 4.49977V7.78211L21.1493 10.101C21.6576 10.5923 21.6577 11.4072 21.1493 11.8986L18.75 14.2174V17.4998C18.75 18.1901 18.1904 18.7498 17.5 18.7498H14.2177L11.8988 21.149C11.4075 21.6574 10.5926 21.6574 10.1012 21.149L7.78235 18.7498H4.50002C3.80966 18.7498 3.25002 18.1901 3.25002 17.4998V14.2174L0.850783 11.8986C0.342383 11.4072 0.342382 10.5923 0.850783 10.101L3.25002 7.7821V4.49977C3.25002 3.80942 3.80966 3.24977 4.50002 3.24977H7.78235L10.1012 0.850539Z" fill="#215C94"/>
<path fill-rule="evenodd" clip-rule="evenodd" d="M6.25002 10.9998C6.25002 8.37642 8.37666 6.24977 11 6.24977C13.6234 6.24977 15.75 8.37642 15.75 10.9998C15.75 13.6231 13.6234 15.7498 11 15.7498C8.37666 15.7498 6.25002 13.6231 6.25002 10.9998ZM11 7.74977C9.20509 7.74977 7.75002 9.20485 7.75002 10.9998C7.75002 12.7947 9.20509 14.2498 11 14.2498C12.7949 14.2498 14.25 12.7947 14.25 10.9998C14.25 9.20485 12.7949 7.74977 11 7.74977Z" fill="#215C94"/>
</svg>
